<mxfile host="65bd71144e">
    <diagram id="JdbviFc0uPYzVxSNgJt3" name="Страница 1">
        <mxGraphModel dx="1725" dy="625" grid="1" gridSize="10" guides="1" tooltips="1" connect="1" arrows="1" fold="1" page="1" pageScale="1" pageWidth="827" pageHeight="1169" math="0" shadow="0">
            <root>
                <mxCell id="0"/>
                <mxCell id="1" parent="0"/>
                <mxCell id="2" value="" style="rounded=0;whiteSpace=wrap;html=1;" parent="1" vertex="1">
                    <mxGeometry x="910" y="585" width="120" height="60" as="geometry"/>
                </mxCell>
                <mxCell id="3" value="" style="rounded=0;whiteSpace=wrap;html=1;" parent="1" vertex="1">
                    <mxGeometry x="-120" y="660" width="120" height="60" as="geometry"/>
                </mxCell>
                <mxCell id="14" style="edgeStyle=none;html=1;exitX=1;exitY=0.25;exitDx=0;exitDy=0;fontSize=14;fontColor=#000000;entryX=0;entryY=0.231;entryDx=0;entryDy=0;entryPerimeter=0;" edge="1" parent="1" source="10" target="11">
                    <mxGeometry relative="1" as="geometry">
                        <mxPoint x="380" y="120" as="targetPoint"/>
                    </mxGeometry>
                </mxCell>
                <mxCell id="10" value="&lt;font style=&quot;font-size: 14px;&quot;&gt;&lt;b&gt;App.tsx {&lt;br&gt;&lt;br&gt;&amp;nbsp; darkMode: booean&lt;br&gt;&amp;nbsp; userData: object&amp;nbsp; &amp;nbsp; &amp;nbsp;from fetch&lt;br&gt;&amp;nbsp; &lt;br&gt;&amp;nbsp; HTML: Layout&lt;br&gt;&amp;nbsp; &amp;nbsp; userData.map: array&lt;br&gt;&lt;br&gt;&amp;nbsp; }&lt;/b&gt;&lt;/font&gt;" style="rounded=0;whiteSpace=wrap;html=1;align=left;verticalAlign=top;fillColor=#FFCC99;fontColor=#000000;" parent="1" vertex="1">
                    <mxGeometry x="40" y="50" width="230" height="280" as="geometry"/>
                </mxCell>
                <mxCell id="13" value="" style="edgeStyle=none;html=1;fontSize=14;fontColor=#000000;entryX=1;entryY=0.5;entryDx=0;entryDy=0;verticalAlign=middle;" edge="1" parent="1" source="11" target="10">
                    <mxGeometry relative="1" as="geometry">
                        <mxPoint x="310" y="190" as="targetPoint"/>
                    </mxGeometry>
                </mxCell>
                <mxCell id="11" value="&lt;b&gt;UserList.tsx {&lt;br&gt;&amp;nbsp; add(): function Hoook&lt;br&gt;&amp;nbsp; update(): function Hook&lt;br&gt;&amp;nbsp; delete(): function Hook&lt;br&gt;&lt;br&gt;&amp;nbsp; &amp;nbsp;HTML: Layout userList&lt;br&gt;&amp;nbsp; &amp;nbsp;&amp;nbsp;&lt;/b&gt;" style="rounded=0;whiteSpace=wrap;html=1;fontSize=14;fontColor=#000000;fillColor=#FFCC99;align=left;verticalAlign=top;" vertex="1" parent="1">
                    <mxGeometry x="390" y="60" width="230" height="260" as="geometry"/>
                </mxCell>
                <mxCell id="15" value="&lt;b&gt;Данные и функции&lt;br&gt;&lt;br&gt;&amp;nbsp; darkMode: boolean&lt;br&gt;&amp;nbsp; userData: array&lt;br&gt;&lt;br&gt;userData:&lt;br&gt;name: string;&lt;br&gt;lastName: string;&lt;br&gt;id: number;&lt;br&gt;email: string;&lt;br&gt;&amp;nbsp;&amp;nbsp;&lt;br&gt;functions&amp;nbsp;&lt;br&gt;&amp;nbsp;addUser(): function Hook&lt;br&gt;&amp;nbsp;updateUser(): function Hook&lt;br&gt;&amp;nbsp;deleteUser(): function Hook&lt;/b&gt;" style="rounded=0;whiteSpace=wrap;html=1;fontSize=14;fontColor=#000000;fillColor=#FFCC99;verticalAlign=top;align=left;" vertex="1" parent="1">
                    <mxGeometry x="-310" y="50" width="220" height="280" as="geometry"/>
                </mxCell>
            </root>
        </mxGraphModel>
    </diagram>
</mxfile>